# xmcd
#
# Track frame offsets: 
#        150
#        13586
#        28574
#        40842
#        54943
#        66305
#        79631
#        92091
#        107218
#        120253
#        138226
#        158004
#        172490
#        185106
#        200242
#        228387
#        242250
#        255870
#        274976
#        295878
#        312041
#
# Disc length: 4358 seconds
#
# Revision: 0
# Processed by: cddbd v1.5.2PL0 Copyright (c) Steve Scherf et al.
# Submitted via: ExactAudioCopy v1.1
#
DISCID=1f110415
DTITLE=Various Artist - Radio 1 - Sporza - Studio France 2019 - CD 1
DYEAR=2019
DGENRE=Chanson
TTITLE0=Jacques Brel - Bruxelles
TTITLE1=Serge Gainsbourg - Je Suis Venu Te Dire Que Je M'En Vais
TTITLE2=Carla Bruni - Quelqu'un M'A Dit
TTITLE3=Jacques Dutronc - Les Playboys
TTITLE4=France Gall - Poupée De Cire, Poupée De Son
TTITLE5=Plastic Bertrand - Ca Plane Pour Moi
TTITLE6=Christophe - Les Marionnettes
TTITLE7=Eddy Mitchell - Toujours Un Coin Qui Me Rappelle
TTITLE8=Adamo - J'Ai Tant De Rêves Dans Mes Bagages
TTITLE9=Philippe Cataldo - Les Divas Du Dancing
TTITLE10=Alizée - Moi... Lolita
TTITLE11=Jean Gabin - Maintenant Je Sais
TTITLE12=Nino Ferrer - Le Téléfon
TTITLE13=Léopold Nord and Vous - C'Est L'Amour
TTITLE14=Patrick Juvet - Où Sont Les Femmes?
TTITLE15=Marie Myriam - L'Oiseau Et L'Enfant
TTITLE16=C. Jérôme - Kiss Me
TTITLE17=Khaled - Aïcha
TTITLE18=Viktor Lazlo - Canoë Rose
TTITLE19=Hervé Vilard - Capri C'Est Fini
TTITLE20=Johnny Hallyday - Que Je T'Aime
EXTD=
EXTT0=
EXTT1=
EXTT2=
EXTT3=
EXTT4=
EXTT5=
EXTT6=
EXTT7=
EXTT8=
EXTT9=
EXTT10=
EXTT11=
EXTT12=
EXTT13=
EXTT14=
EXTT15=
EXTT16=
EXTT17=
EXTT18=
EXTT19=
EXTT20=
PLAYORDER=
